<svg id="Layer_1" data-name="Layer 1" xmlns="http://www.w3.org/2000/svg" viewBox="0 0 151 147"><defs><style>.cls-1{fill:#2e368f;}</style></defs><title>LArtboard 18S</title><path class="cls-1" d="M75.5,16.89A56.61,56.61,0,1,0,132.11,73.5,56.62,56.62,0,0,0,75.5,16.89ZM99.9,68.63l-21.4,0a1.21,1.21,0,0,0-1.06.32c-.35,1.11.12,1.74,1.12,2.22a8.69,8.69,0,0,1,3.1,1.76c-.11.23-.17.38-.24.52s-.28.35-.19.6a2.06,2.06,0,0,0,.89.71c3.43,2,4.54,5.13,4.12,8.89a25.79,25.79,0,0,1-1.48,6.09c-.82,2.24-1.94,4.34-2.83,6.54a7.79,7.79,0,0,0-.59,4.36,2.75,2.75,0,0,0,1.58,2.17c2.07,1,2.19,1.24,1.68,3.43H67.65c-.12-1.6.09-2.93,2-3.49a2.62,2.62,0,0,0,1.6-2.52A7.51,7.51,0,0,0,70.5,96c-.73-1.49-1.42-3-2.09-4.51a23.17,23.17,0,0,1-2.31-7.91c-.21-3.42.41-6.58,3.61-8.53,1-.61,1.45-1.21.84-2.37l3.06-1.56c1.33-.67,1.35-.72,1.07-2.37a5,5,0,0,0-1.93-.17H55.13A4.11,4.11,0,0,1,53,68.3V68c.37-.19.5-.57.69-.89L67,44.88A5.76,5.76,0,0,1,68.31,43h15.3a4.37,4.37,0,0,1,1.68,1.78c2.87,4.6,5.72,9.22,8.63,13.8,2,3.12,3.81,6.34,6,9.35Z"/></svg>