<svg id="Layer_1" data-name="Layer 1" xmlns="http://www.w3.org/2000/svg" viewBox="0 0 151 147"><defs><style>.cls-1{fill:#00a99d;}</style></defs><title>LArtboard 14 copyS</title><path class="cls-1" d="M75.5,16.89A56.61,56.61,0,1,0,132.11,73.5,56.62,56.62,0,0,0,75.5,16.89ZM80.41,53.7C83,51.14,85.49,48.56,88,46a2.81,2.81,0,0,1,2.19-.88A3,3,0,0,1,93,49.56a4.73,4.73,0,0,1-.88,1.1q-3.57,3.54-7.15,7.07c-.86.85-.89.85-1.72,0S81.37,55.9,80.42,55A.77.77,0,0,1,80.41,53.7Zm-14,35Q59.72,95.41,53,102.13a1.46,1.46,0,0,1-.75.54c-.29,0-.45-.24-.63-.42-1.7-1.69-3.39-3.4-5.11-5.08-.47-.46-.54-.82,0-1.28s1-1,1.56-1.55c4-4,7.91-7.9,11.84-11.88.62-.62,1-.67,1.63,0,1.59,1.66,3.23,3.27,4.87,4.88C66.92,87.82,67,88.17,66.45,88.73ZM96.19,75.64,92,79.85c-.42.42-.71.19-1-.13s-.86-1.3-1.48-1.31-1.32.75-2,1.2c-2.52,1.78-5,3.58-7.54,5.37a8.87,8.87,0,0,1-3.23,1.55A5.61,5.61,0,0,1,71.22,85c-2.5-2.46-5-5-7.44-7.44a5.87,5.87,0,0,1-1.73-4.11,8.11,8.11,0,0,1,1.55-4.35c2.07-2.89,4.15-5.78,6.2-8.69.94-1.33.82-1-.17-2a3.75,3.75,0,0,0-.45-.44c-.6-.45-.59-.87,0-1.4C70.46,55.32,71.75,54,73,52.7c.43-.44.78-.43,1.17,0,.21.23.45.44.67.66L95.42,73.91l.77.79A.57.57,0,0,1,96.19,75.64Zm7.21-15.77a4.1,4.1,0,0,1-.85,1.12c-2.42,2.39-4.84,4.79-7.27,7.17-.83.82-.86.81-1.72,0s-1.84-1.86-2.78-2.77c-.42-.4-.49-.74,0-1.18,2.63-2.63,5.23-5.28,7.87-7.9a2.64,2.64,0,0,1,2.08-.76A3,3,0,0,1,103.4,59.87Z"/></svg>