<svg id="Layer_1" data-name="Layer 1" xmlns="http://www.w3.org/2000/svg" viewBox="0 0 151 147"><defs><style>.cls-1{fill:#7158a5;}</style></defs><title>LArtboard 14S</title><path class="cls-1" d="M75.5,16.89A56.61,56.61,0,1,0,132.11,73.5,56.62,56.62,0,0,0,75.5,16.89Zm26.61,65.54c-.48,3.24-.88,6.49-1.36,9.74-.29,1.91.11,1.58-1.77,1.58-6.06,0-12.11,0-18.16,0h-.09c-1,0-.86,0-1-.82-.25-1.28-.48-2.57-.72-3.86-.6-3.19-1.19-6.38-1.79-9.58s-1.13-6.15-1.7-9.22c0-.11,0-.25-.21-.28a1.58,1.58,0,0,0-.22.81q-1.64,8.73-3.26,17.48c-.29,1.58-.57,3.16-.86,4.74-.14.72-.14.73-.83.73h-19c-.15,0-.3,0-.45,0-.38,0-.5-.16-.55-.52-.14-1.15-.32-2.3-.48-3.45-.34-2.45-.66-4.9-1-7.35A1.35,1.35,0,0,1,49,81.1q4.11-4,7.93-8.26A130.76,130.76,0,0,0,73,51.09c.68-1.19,1.31-2.4,2-3.6.11-.2.15-.46.39-.57.25.07.27.31.36.48a115.94,115.94,0,0,0,12,18.28c1.75,2.22,3.58,4.38,5.45,6.5q4.1,4.62,8.52,8.92A1.36,1.36,0,0,1,102.11,82.43Z"/></svg>