<svg id="Layer_1" data-name="Layer 1" xmlns="http://www.w3.org/2000/svg" viewBox="0 0 151 147"><defs><style>.cls-1{fill:#b9539f;}</style></defs><title>LArtboard 11S</title><path class="cls-1" d="M75.47,16.89a56.61,56.61,0,1,0,56.64,56.58A56.62,56.62,0,0,0,75.47,16.89Zm19.89,72A33.21,33.21,0,0,1,84,98.42a2.09,2.09,0,0,1,.28-1.2c4.4-10,1.09-23.22-7.32-30.38-.36-.31-.7-.92-1.21-.7s-.19.84-.19,1.27A21.34,21.34,0,0,1,72,79.71c-.26.38-.45.89-1,1-.3-5.17-.44-5.84-1.66-7.37-.94,4.51-3.59,8-5.7,11.87a11.62,11.62,0,0,0-1.32,5.92,20.75,20.75,0,0,0,2,7.46h-.5c-.48-.33-.95-.68-1.45-1a35.18,35.18,0,0,1-7.68-6A15.29,15.29,0,0,1,50.31,80.4a24.78,24.78,0,0,1,2.76-10.07,53.11,53.11,0,0,0,3.61-8.13c.32-1.07.54-2.16.89-3.56,1.7,2.84,2.09,5.71,2.47,8.65,5.74-7.53,11.3-15,10.44-25.2H71a24.85,24.85,0,0,1,9,7.38,35.8,35.8,0,0,1,5.86,11.71c.11.38.1,1,.55,1s.67-.56.88-.94a8.78,8.78,0,0,0,.79-5.61c-.14-.93-.38-1.84-.59-2.81a1.79,1.79,0,0,1,1.2.79,38.49,38.49,0,0,1,9.42,15.08C100.48,75.87,99.88,82.67,95.36,88.88Z"/></svg>