<svg id="Layer_1" data-name="Layer 1" xmlns="http://www.w3.org/2000/svg" xmlns:xlink="http://www.w3.org/1999/xlink" viewBox="0 0 1124 659"><defs><style>.cls-1{font-size:577.67px;fill:#58595b;font-family:DillandaCaligraphyScriptDemo, Dillanda Caligraphy Script Demo;}.cls-2{fill:#414042;}.cls-3{fill:url(#radial-gradient);}.cls-4{fill:#fff;}.cls-5{fill:url(#linear-gradient);}.cls-6{fill:url(#linear-gradient-2);}.cls-7{fill:url(#linear-gradient-3);}.cls-8{fill:url(#linear-gradient-4);}.cls-9{fill:url(#linear-gradient-5);}.cls-10{fill:url(#linear-gradient-6);}.cls-11{fill:url(#linear-gradient-7);}.cls-12{fill:url(#linear-gradient-8);}</style><radialGradient id="radial-gradient" cx="533.83" cy="327.05" r="510.86" gradientUnits="userSpaceOnUse"><stop offset="0" stop-color="#ffde17"/><stop offset="1" stop-color="#fbb040"/></radialGradient><linearGradient id="linear-gradient" x1="128.53" y1="332.25" x2="206.53" y2="726.25" gradientUnits="userSpaceOnUse"><stop offset="0" stop-color="#fff" stop-opacity="0"/><stop offset="1" stop-color="#fff"/></linearGradient><linearGradient id="linear-gradient-2" x1="198.73" y1="318.35" x2="276.73" y2="712.35" xlink:href="#linear-gradient"/><linearGradient id="linear-gradient-3" x1="267.89" y1="304.66" x2="345.89" y2="698.66" xlink:href="#linear-gradient"/><linearGradient id="linear-gradient-4" x1="372.63" y1="283.93" x2="450.63" y2="677.93" xlink:href="#linear-gradient"/><linearGradient id="linear-gradient-5" x1="512.12" y1="256.31" x2="590.12" y2="650.31" xlink:href="#linear-gradient"/><linearGradient id="linear-gradient-6" x1="651.35" y1="228.75" x2="729.35" y2="622.75" xlink:href="#linear-gradient"/><linearGradient id="linear-gradient-7" x1="794.57" y1="200.4" x2="872.57" y2="594.4" xlink:href="#linear-gradient"/><linearGradient id="linear-gradient-8" x1="927.36" y1="174.11" x2="1005.36" y2="568.11" xlink:href="#linear-gradient"/></defs><title>LNYAKUAS</title><text class="cls-1" transform="translate(-1730.78 -138.68)">Kibarua</text><path class="cls-2" d="M1042.55,279.61l-39.68-61.1a20.54,20.54,0,0,0-17.19-9.34H900.77a20.59,20.59,0,0,0-9.13,2.18,20.55,20.55,0,0,0-9.12-2.18H830.14a20.54,20.54,0,0,0-9.91,2.59,20.58,20.58,0,0,0-9.92-2.59h-10a20.32,20.32,0,0,0,.64-8.11l-12.37-99.89a20.52,20.52,0,0,0-20.34-18h-44.7a20.37,20.37,0,0,0-9.89,2.57,20.71,20.71,0,0,0-9.9-2.57H675a20.28,20.28,0,0,0-3.89.39,20.28,20.28,0,0,0-3.89-.39H638.73a20.27,20.27,0,0,0-3.57.34,20.37,20.37,0,0,0-3.67-.34H601.1a20.49,20.49,0,0,0-5.82.87,20.54,20.54,0,0,0-5.84-.87H562.76a20.6,20.6,0,0,0-10,2.63,20.3,20.3,0,0,0-10-2.63H498.1a20.54,20.54,0,0,0-7.41,1.39,20.64,20.64,0,0,0-7.43-1.39H455.53a20.83,20.83,0,0,0-4.5.52,20.38,20.38,0,0,0-4.51-.52H416.66a21,21,0,0,0-3.08.24,20.55,20.55,0,0,0-2.93-.24H384.33a20,20,0,0,0-4.64.57,20.62,20.62,0,0,0-4.73-.57H345.64a20.5,20.5,0,0,0-20.5,20.5v99.9a20.22,20.22,0,0,0,.88,5.9,20.8,20.8,0,0,0-5.86,1.93,20.63,20.63,0,0,0-9.26-2.24H258.53a20.6,20.6,0,0,0-9.26,2.24,20.63,20.63,0,0,0-9.26-2.24H187.64a20.6,20.6,0,0,0-9.79,2.51,20.6,20.6,0,0,0-9.79-2.51H115.69a20.5,20.5,0,0,0-20.5,20.5V415.36a20.49,20.49,0,0,0,20.5,20.5h52.37a20.59,20.59,0,0,0,9.79-2.5,20.59,20.59,0,0,0,9.79,2.5H240a20.5,20.5,0,0,0,9.26-2.24,20.47,20.47,0,0,0,9.26,2.24h22.33c-.72.69-1.42,1.41-2.09,2.16a41.49,41.49,0,0,0-5.12,7.17A46,46,0,0,0,269,457.57a60.29,60.29,0,0,0-1.4,13.36v45.68a66.52,66.52,0,0,0,.93,11.42,50.78,50.78,0,0,0,2.53,9.35,41.87,41.87,0,0,0,8.73,14,40.46,40.46,0,0,0,9.2,7.21,47.2,47.2,0,0,0,14.39,5.22A67.42,67.42,0,0,0,316.26,565a72.55,72.55,0,0,0,12.16-1,53.44,53.44,0,0,0,9.87-2.59c1.27-.47,2.53-1,3.76-1.59a20.6,20.6,0,0,0,11.66,3.66H379a20.46,20.46,0,0,0,3.83-.37,20.27,20.27,0,0,0,3.82.37h25.66a19.89,19.89,0,0,0,3.36-.3,20.22,20.22,0,0,0,3.49.3H445a20.19,20.19,0,0,0,5.41-.74,20.26,20.26,0,0,0,5.42.74H482a20.25,20.25,0,0,0,3.5-.3,19.89,19.89,0,0,0,3.36.3h25.33a20.49,20.49,0,0,0,20.5-20.5V525.25c1.16-.28,2.32-.58,3.47-.94a45.18,45.18,0,0,0,7-2.86,39.63,39.63,0,0,0,10-7.25v2.41a66.51,66.51,0,0,0,.94,11.42,50.78,50.78,0,0,0,2.53,9.35,41.71,41.71,0,0,0,8.73,14,40.46,40.46,0,0,0,9.2,7.21A47.2,47.2,0,0,0,591,563.86,67.36,67.36,0,0,0,603.89,565a72.55,72.55,0,0,0,12.16-1,53.13,53.13,0,0,0,9.86-2.59c1.28-.47,2.54-1,3.76-1.59a20.65,20.65,0,0,0,11.67,3.66h25.33a20.46,20.46,0,0,0,3.83-.37,20.27,20.27,0,0,0,3.82.37H700a19.78,19.78,0,0,0,3.35-.3,20.42,20.42,0,0,0,3.5.3h25.81a20.21,20.21,0,0,0,5.42-.74,20.21,20.21,0,0,0,5.42.74h26.13a20.42,20.42,0,0,0,3.5-.3,19.87,19.87,0,0,0,3.35.3H801.8A20.49,20.49,0,0,0,822.3,543V525.25c1.16-.28,2.32-.58,3.47-.94a44.68,44.68,0,0,0,7-2.86,39.33,39.33,0,0,0,16.77-16.25,47,47,0,0,0,4.78-13.31,67.35,67.35,0,0,0,1.25-13.47V472A56.05,56.05,0,0,0,853,454.38a43.27,43.27,0,0,0-6.46-12.5,40.56,40.56,0,0,0-5.56-6h41.57a20.54,20.54,0,0,0,9.12-2.17,20.58,20.58,0,0,0,9.13,2.17h52.37a20.59,20.59,0,0,0,9.79-2.5,20.59,20.59,0,0,0,9.79,2.5h52.64a20.5,20.5,0,0,0,20.5-20.5V290.78A20.34,20.34,0,0,0,1042.55,279.61ZM433.83,424.73,451.75,407v8.35a20.68,20.68,0,0,0,2.29,9.37Zm17.92-195.06v4l-11.92-9.63h12.73A20.26,20.26,0,0,0,451.75,229.67Zm137.69-5.59a20.3,20.3,0,0,0,6.1-1l.14.05a20.37,20.37,0,0,0-1.09,6.49v20L578,224.08Zm148.79,0a20.63,20.63,0,0,0-.8,5.59v4l-11.92-9.63Zm38.23,200.65a20.46,20.46,0,0,0-9,2.11,20.35,20.35,0,0,0-9-2.1,20.43,20.43,0,0,0,1.38-7.3V407l18,17.76ZM566.4,438a41.49,41.49,0,0,0-5.12,7.17l-.08.15a39.92,39.92,0,0,0-7.88-9.48h15.17C567.77,436.55,567.07,437.27,566.4,438Z"/><path class="cls-3" d="M240,416.4H187.64V341.81H168.06V416.4H115.69V230.71h52.37v75.54l19.58-19.38V230.71H240V293.4l-28.83,29.1H240Z"/><path class="cls-3" d="M258.53,230.71H310.9v40.47H258.53ZM310.9,416.4H258.53V290.75H310.9Z"/><path class="cls-3" d="M453.74,377.25l-39.6,39.15H329.42V230.71h84.72l39.6,32V293.4l-28.83,28.83h28.83Zm-52.38-71.68V275.94H381.79v29.63Zm0,65.6V337.84H381.79v33.33Z"/><path class="cls-3" d="M472.25,230.71h84.91l39.68,61.1V416.4H544.2V337.84H524.63V416.4H472.25Zm72,74.86-19.57-38.09v38.09Z"/><path class="cls-3" d="M739.42,262.72v61.89l-28.84.27,28.84,28.83v64.76H687V360.82l-19.57-19.95V416.4H615.09V230.71h84.73ZM687,305.57V275.94H667.47v29.63Z"/><path class="cls-3" d="M882.52,416.4H797.61l-39.68-39.15V230.71h52.38V371.17h19.83V230.71h52.38Z"/><path class="cls-3" d="M900.77,230.71h84.91l39.68,61.1V416.4H972.72V337.84H953.14V416.4H900.77Zm72,74.86-19.58-38.09v38.09Z"/><path class="cls-4" d="M345.9,507.8v7.79c0,15.12-3.51,30-29.64,30-14.18,0-28.2-4.55-28.2-27.91V472c0-20.86,12.42-27.17,28.84-27.17,26,0,29,16,29,27v9.11H320.24V469.32c0-4-.32-6.31-3.34-6.31-2.87,0-3.51,1.91-3.51,6.31v51.26c0,4.85.64,6.61,3.19,6.61,2.87,0,3.66-1.76,3.66-7.05V507.8Z"/><path class="cls-4" d="M353.71,446.27H379v36.86h7.65V446.27h25.66v97.81H386.69V502.52H379v41.56H353.71Z"/><path class="cls-4" d="M446.29,523.52,445,544.08H419.2l11.31-97.81h40.32L482,544.08H455.85l-1.27-20.56Zm7.17-19.39c-.48-7.49-2.39-33-2.87-38.33h-1.11c-.16,4.26-1.76,28.79-2.23,38.33Z"/><path class="cls-4" d="M488.84,446.27h31.71c18.48,0,26.93,10.13,26.93,26.73v6.46c0,18.21-7.65,27.9-27.41,27.9h-5.9v36.72H488.84Zm25.33,42.29h2.07c4.15,0,5.58-1.91,5.58-7.78V470.21c0-5.29-2.23-6.61-5.74-6.61h-1.91Z"/><path class="cls-4" d="M633.53,507.8v7.79c0,15.12-3.51,30-29.64,30-14.18,0-28.21-4.55-28.21-27.91V472c0-20.86,12.43-27.17,28.84-27.17,26,0,29,16,29,27v9.11H607.87V469.32c0-4-.32-6.31-3.35-6.31-2.86,0-3.5,1.91-3.5,6.31v51.26c0,4.85.64,6.61,3.19,6.61,2.86,0,3.66-1.76,3.66-7.05V507.8Z"/><path class="cls-4" d="M641.34,446.27h25.33v36.86h7.65V446.27H700v97.81H674.32V502.52h-7.65v41.56H641.34Z"/><path class="cls-4" d="M733.92,523.52l-1.28,20.56H706.83l11.31-97.81h40.32l11.15,97.81H743.48l-1.28-20.56Zm7.17-19.39c-.48-7.49-2.39-33-2.87-38.33H737.1c-.16,4.26-1.75,28.79-2.23,38.33Z"/><path class="cls-4" d="M776.46,446.27h31.71c18.49,0,26.93,10.13,26.93,26.73v6.46c0,18.21-7.65,27.9-27.4,27.9h-5.9v36.72H776.46Zm25.34,42.29h2.07c4.15,0,5.58-1.91,5.58-7.78V470.21c0-5.29-2.23-6.61-5.74-6.61H801.8Z"/><path class="cls-4" d="M345.64,204.62v-99.9H375c2.83,11,11.66,50.25,12.37,54.45h1.24c-1.95-15.75-4.24-41.55-4.24-50.85v-3.6h26.32v99.9H379c-1.42-8.55-9.72-54.6-10.25-57.9h-1.41c.88,11.1,3.18,43.95,3.18,55.5v2.4Z"/><path class="cls-4" d="M435.92,204.62v-26.7a44,44,0,0,0-1.06-8.1l-18.2-65.1h29.86c.88,12,2.29,26.25,3.18,41.1h1.76c.89-11.1,2.83-28,4.07-41.1h27.73l-18.55,66.9a17,17,0,0,0-.88,4.8v28.2Z"/><path class="cls-4" d="M515.59,183.62l-1.41,21H485.56l12.54-99.9h44.7l12.37,99.9h-29l-1.41-21Zm7.95-19.8c-.53-7.65-2.65-33.75-3.18-39.15h-1.23c-.18,4.35-2,29.4-2.48,39.15Z"/><path class="cls-4" d="M562.76,104.72h26.68v42.15h.71c2.47-8.25,7.24-28.05,11-42.15h30.39l-17.14,38.85,17.31,61.05h-30l-6.71-39-5.48,11.7v27.3H562.76Z"/><path class="cls-4" d="M667.17,104.72v77.1c0,3.6,1.06,5.55,3.71,5.55,3.18,0,4.07-1.8,4.07-5.55v-77.1h28.79v74.1c0,21.15-11.66,27-33.21,27-22.44,0-31.8-7.8-31.8-27.45V104.72Z"/><path class="cls-4" d="M741,183.62l-1.41,21H711l12.54-99.9h44.7l12.37,99.9h-29l-1.41-21Zm8-19.8c-.53-7.65-2.65-33.75-3.18-39.15h-1.23c-.18,4.35-1.95,29.4-2.48,39.15Z"/><polygon class="cls-5" points="168.06 416.77 168.06 382.54 115.69 389.88 115.69 416.77 168.06 416.77"/><polygon class="cls-6" points="240.01 416.77 240.01 372.45 187.64 379.79 187.64 416.77 240.01 416.77"/><polygon class="cls-7" points="310.9 416.77 310.9 362.51 258.53 369.85 258.53 416.77 310.9 416.77"/><polygon class="cls-8" points="414.14 416.77 453.74 377.62 453.74 342.49 401.37 349.83 401.37 371.53 381.79 371.53 381.79 352.57 329.42 359.92 329.42 416.77 414.14 416.77"/><polygon class="cls-9" points="524.63 416.77 524.63 338.2 544.2 338.2 544.2 416.77 596.84 416.77 596.84 322.42 472.25 339.89 472.25 416.77 524.63 416.77"/><polygon class="cls-10" points="667.47 416.77 667.47 341.23 687.04 361.18 687.04 418.84 739.42 418.84 739.42 354.07 710.58 325.24 739.42 324.98 739.42 302.44 615.09 319.87 615.09 416.77 667.47 416.77"/><polygon class="cls-11" points="797.61 416.77 882.52 416.77 882.52 282.37 830.14 289.72 830.14 371.53 810.31 371.53 810.31 292.5 757.93 299.84 757.93 377.62 797.61 416.77"/><polygon class="cls-12" points="953.14 416.77 953.14 338.2 972.72 338.2 972.72 416.77 1025.36 416.77 1025.36 292.18 1007.6 264.84 955.36 272.16 972.72 305.93 953.14 305.93 953.14 272.47 900.77 279.82 900.77 416.77 953.14 416.77"/></svg>