<svg id="Layer_1" data-name="Layer 1" xmlns="http://www.w3.org/2000/svg" viewBox="0 0 151 147"><defs><style>.cls-1{fill:#d41c5c;}</style></defs><title>LArtboard 16S</title><path class="cls-1" d="M75.5,16.89A56.61,56.61,0,1,0,132.11,73.5,56.62,56.62,0,0,0,75.5,16.89ZM54.7,59.53h0v8a1,1,0,0,1-.12.66,1.08,1.08,0,0,1-.95.51c-2,0-4,0-5.92,0a1.12,1.12,0,0,1-1.14-1.14c0-2.08,0-4.16,0-6.24q0-4.83,0-9.64a1.17,1.17,0,0,1,0-.56,1,1,0,0,1,.93-.64c2,0,4.08,0,6.12,0,.67,0,1,.41,1,1.15,0,2.23,0,4.46,0,6.68Zm2,6.36q0-6.36,0-12.73c0-.78-.07-.72.71-.7a15.86,15.86,0,0,1,5.92,1.29A17.23,17.23,0,0,1,73.62,66.59a12.89,12.89,0,0,1,.26,2.63c0,.41,0,.42-.43.43h-13c-.14,0-.29,0-.44,0s-.32-.05-.34-.27a3,3,0,0,0-.09-.43,2.9,2.9,0,0,0-2.25-2.22C56.67,66.57,56.67,66.58,56.67,65.89Zm1.59,13.77a1,1,0,0,1-.58-.91c0-2,0-4.08,0-6.11a1,1,0,0,1,1.1-1H74.67a1.2,1.2,0,0,1,.62.07,1.05,1.05,0,0,1,.61,1c0,2,0,4,0,5.92a1,1,0,0,1-1.13,1.12H58.87A1.07,1.07,0,0,1,58.26,79.66Zm41.84,1.78A20.28,20.28,0,0,1,96,93.61a18.35,18.35,0,0,1-10.26,6.77,18.94,18.94,0,0,1-6.49.51,21.31,21.31,0,0,1-11.64-4.6,20.38,20.38,0,0,1-6.9-9.71,14.63,14.63,0,0,1-.83-4c0-.28-.26-.61,0-.83s.52,0,.8,0H73.75a.26.26,0,0,1,.27.21,2.63,2.63,0,0,0,.09.3,5.81,5.81,0,0,0,4.44,4.35,6,6,0,0,0,6.94-3.64,7.05,7.05,0,0,0,.45-2.52V61.24c0-.78-.07-.72.7-.72H99.76c.28,0,.36.11.35.37,0,.72,0,1.43,0,2.15,0,2.87,0,5.75,0,8.63h0C100.11,74.93,100.15,78.19,100.1,81.44Zm2-24A1,1,0,0,1,101,58.54H85.13a1.16,1.16,0,0,1-.73-.13,1.1,1.1,0,0,1-.48-1c0-1.64,0-3.27,0-4.91v-1A1,1,0,0,1,85,50.43h16a1,1,0,0,1,.67.12,1,1,0,0,1,.51.88C102.12,53.44,102.13,55.46,102.13,57.48Z"/></svg>